<mxfile host="app.diagrams.net" agent="Mozilla/5.0 (Windows NT 10.0; Win64; x64) AppleWebKit/537.36 (KHTML, like Gecko) Chrome/134.0.0.0 Safari/537.36" version="26.1.1">
  <diagram name="Page-1" id="Qxy9B3H4Qm6ESKPBz6GG">
    <mxGraphModel dx="750" dy="1506" grid="1" gridSize="10" guides="1" tooltips="1" connect="1" arrows="1" fold="1" page="1" pageScale="1" pageWidth="850" pageHeight="1100" math="0" shadow="0">
      <root>
        <mxCell id="0" />
        <mxCell id="1" parent="0" />
        <mxCell id="HthpFhxTG9hvTSC9DSsg-3" value="" style="rounded=0;whiteSpace=wrap;html=1;" parent="1" vertex="1">
          <mxGeometry x="110" y="80" width="1540" height="830" as="geometry" />
        </mxCell>
        <mxCell id="TzFwUVk6B7lNroVCUPBC-27" value="" style="rounded=0;whiteSpace=wrap;html=1;" parent="1" vertex="1">
          <mxGeometry x="210" y="210" width="660" height="640" as="geometry" />
        </mxCell>
        <mxCell id="TzFwUVk6B7lNroVCUPBC-17" value="" style="rounded=0;whiteSpace=wrap;html=1;" parent="1" vertex="1">
          <mxGeometry x="980" y="-320" width="240" height="290" as="geometry" />
        </mxCell>
        <mxCell id="TzFwUVk6B7lNroVCUPBC-16" value="" style="rounded=0;whiteSpace=wrap;html=1;" parent="1" vertex="1">
          <mxGeometry x="715" y="-320" width="240" height="290" as="geometry" />
        </mxCell>
        <mxCell id="TzFwUVk6B7lNroVCUPBC-3" value="" style="rounded=0;whiteSpace=wrap;html=1;" parent="1" vertex="1">
          <mxGeometry x="460" y="250" width="380" height="570" as="geometry" />
        </mxCell>
        <mxCell id="HthpFhxTG9hvTSC9DSsg-2" value="API ( swagger )" style="rounded=0;whiteSpace=wrap;html=1;" parent="1" vertex="1">
          <mxGeometry x="490" y="680" width="130" height="90" as="geometry" />
        </mxCell>
        <mxCell id="HthpFhxTG9hvTSC9DSsg-4" value="CRUD/USERS&lt;div style=&quot;text-align: left;&quot;&gt;GET/users/:id&lt;/div&gt;&lt;div style=&quot;text-align: left;&quot;&gt;GET/users&lt;/div&gt;&lt;div style=&quot;text-align: left;&quot;&gt;POST/users/role&lt;span style=&quot;color: rgba(0, 0, 0, 0); font-family: monospace; font-size: 0px; text-wrap-mode: nowrap; background-color: transparent;&quot;&gt;%3CmxGraphModel%3E%3Croot%3E%3CmxCell%20id%3D%220%22%2F%3E%3CmxCell%20id%3D%221%22%20parent%3D%220%22%2F%3E%3CmxCell%20id%3D%222%22%20value%3D%22API%20(%20swagger%20)%22%20style%3D%22rounded%3D0%3BwhiteSpace%3Dwrap%3Bhtml%3D1%3B%22%20vertex%3D%221%22%20parent%3D%221%22%3E%3CmxGeometry%20x%3D%22545%22%20y%3D%22170%22%20width%3D%22120%22%20height%3D%2260%22%20as%3D%22geometry%22%2F%3E%3C%2FmxCell%3E%3C%2Froot%3E%3C%2FmxGraphModel%3E&lt;/span&gt;&lt;/div&gt;&lt;div&gt;&lt;div&gt;&lt;br&gt;&lt;/div&gt;&lt;/div&gt;" style="rounded=0;whiteSpace=wrap;html=1;" parent="1" vertex="1">
          <mxGeometry x="490" y="330" width="130" height="100" as="geometry" />
        </mxCell>
        <mxCell id="HthpFhxTG9hvTSC9DSsg-5" value="CRUD/ARTS&lt;div style=&quot;text-align: left;&quot;&gt;GET/arts/:id&lt;/div&gt;&lt;div style=&quot;text-align: left;&quot;&gt;&lt;div&gt;GET/arts/filters/name?=litho&lt;/div&gt;&lt;/div&gt;&lt;div style=&quot;text-align: left;&quot;&gt;GET/arts/list/:amount&lt;/div&gt;&lt;div style=&quot;text-align: left;&quot;&gt;POST/arts&lt;/div&gt;&lt;div style=&quot;text-align: left;&quot;&gt;&lt;span style=&quot;background-color: transparent; color: light-dark(rgb(0, 0, 0), rgb(255, 255, 255));&quot;&gt;PUT/arts/:id&lt;/span&gt;&lt;/div&gt;&lt;div style=&quot;text-align: left;&quot;&gt;DELETE/arts/:id&lt;/div&gt;&lt;div style=&quot;text-align: left;&quot;&gt;&lt;div&gt;&lt;br&gt;&lt;/div&gt;&lt;/div&gt;&lt;div style=&quot;text-align: left;&quot;&gt;&lt;span style=&quot;color: rgba(0, 0, 0, 0); font-family: monospace; font-size: 0px; text-wrap-mode: nowrap; background-color: transparent;&quot;&gt;dwd%3CmxGraphModel%3E%3Croot%3E%3CmxCell%20id%3D%220%22%2F%3E%3CmxCell%20id%3D%221%22%20parent%3D%220%22%2F%3E%3CmxCell%20id%3D%222%22%20value%3D%22API%20(%20swagger%20)%22%20style%3D%22rounded%3D0%3BwhiteSpace%3Dwrap%3Bhtml%3D1%3B%22%20vertex%3D%221%22%20parent%3D%221%22%3E%3CmxGeometry%20x%3D%22545%22%20y%3D%22170%22%20width%3D%22120%22%20height%3D%2260%22%20as%3D%22geometry%22%2F%3E%3C%2FmxCell%3E%3C%2Froot%3E%3C%2FmxGraphModel%3Ewdf&lt;/span&gt;&lt;/div&gt;" style="rounded=0;whiteSpace=wrap;html=1;" parent="1" vertex="1">
          <mxGeometry x="630" y="330" width="190" height="140" as="geometry" />
        </mxCell>
        <mxCell id="HthpFhxTG9hvTSC9DSsg-6" value="CRUD/REQUESTS&lt;div style=&quot;text-align: left;&quot;&gt;GET/requests/:id&lt;/div&gt;&lt;div style=&quot;text-align: left;&quot;&gt;&lt;div&gt;POST/requests&lt;/div&gt;&lt;/div&gt;&lt;div style=&quot;text-align: left;&quot;&gt;&lt;br&gt;&lt;/div&gt;&lt;div style=&quot;text-align: left;&quot;&gt;&lt;div&gt;&lt;br&gt;&lt;/div&gt;&lt;/div&gt;&lt;div style=&quot;text-align: left;&quot;&gt;&lt;span style=&quot;color: rgba(0, 0, 0, 0); font-family: monospace; font-size: 0px; text-wrap-mode: nowrap; background-color: transparent;&quot;&gt;dwd%3CmxGraphModel%3E%3Croot%3E%3CmxCell%20id%3D%220%22%2F%3E%3CmxCell%20id%3D%221%22%20parent%3D%220%22%2F%3E%3CmxCell%20id%3D%222%22%20value%3D%22API%20(%20swagger%20)%22%20style%3D%22rounded%3D0%3BwhiteSpace%3Dwrap%3Bhtml%3D1%3B%22%20vertex%3D%221%22%20parent%3D%221%22%3E%3CmxGeometry%20x%3D%22545%22%20y%3D%22170%22%20width%3D%22120%22%20height%3D%2260%22%20as%3D%22geometry%22%2F%3E%3C%2FmxCell%3E%3C%2Froot%3E%3C%2FmxGraphModel%3Ewdf&lt;/span&gt;&lt;/div&gt;" style="rounded=0;whiteSpace=wrap;html=1;" parent="1" vertex="1">
          <mxGeometry x="490" y="550" width="130" height="110" as="geometry" />
        </mxCell>
        <mxCell id="HthpFhxTG9hvTSC9DSsg-7" value="CRUD/AUTH&lt;br&gt;&lt;div style=&quot;text-align: left;&quot;&gt;POST/auth/register&lt;/div&gt;&lt;div style=&quot;text-align: left;&quot;&gt;POST/auth/login&lt;/div&gt;&lt;div&gt;&lt;div&gt;&lt;br&gt;&lt;/div&gt;&lt;/div&gt;" style="rounded=0;whiteSpace=wrap;html=1;" parent="1" vertex="1">
          <mxGeometry x="490" y="440" width="130" height="100" as="geometry" />
        </mxCell>
        <mxCell id="HthpFhxTG9hvTSC9DSsg-8" value="CRUD/ANIMATIONS&lt;div style=&quot;text-align: left;&quot;&gt;GET/animations/:id&lt;/div&gt;&lt;div style=&quot;text-align: left;&quot;&gt;&lt;div&gt;GET/animations/filters/name?=litho&lt;/div&gt;&lt;/div&gt;&lt;div style=&quot;text-align: left;&quot;&gt;GET/animations/list/:amount&lt;/div&gt;&lt;div style=&quot;text-align: left;&quot;&gt;POST/&lt;span style=&quot;background-color: transparent; color: light-dark(rgb(0, 0, 0), rgb(255, 255, 255));&quot;&gt;animations&lt;/span&gt;&lt;/div&gt;&lt;div style=&quot;text-align: left;&quot;&gt;&lt;span style=&quot;background-color: transparent; color: light-dark(rgb(0, 0, 0), rgb(255, 255, 255));&quot;&gt;PUT/&lt;/span&gt;animations&lt;span style=&quot;background-color: transparent; color: light-dark(rgb(0, 0, 0), rgb(255, 255, 255));&quot;&gt;/:id&lt;/span&gt;&lt;/div&gt;&lt;div style=&quot;text-align: left;&quot;&gt;DELETE/animations/:id&lt;/div&gt;&lt;div style=&quot;text-align: left;&quot;&gt;&lt;div&gt;&lt;br&gt;&lt;/div&gt;&lt;/div&gt;&lt;div style=&quot;text-align: left;&quot;&gt;&lt;span style=&quot;color: rgba(0, 0, 0, 0); font-family: monospace; font-size: 0px; text-wrap-mode: nowrap; background-color: transparent;&quot;&gt;dwd%3CmxGraphModel%3E%3Croot%3E%3CmxCell%20id%3D%220%22%2F%3E%3CmxCell%20id%3D%221%22%20parent%3D%220%22%2F%3E%3CmxCell%20id%3D%222%22%20value%3D%22API%20(%20swagger%20)%22%20style%3D%22rounded%3D0%3BwhiteSpace%3Dwrap%3Bhtml%3D1%3B%22%20vertex%3D%221%22%20parent%3D%221%22%3E%3CmxGeometry%20x%3D%22545%22%20y%3D%22170%22%20width%3D%22120%22%20height%3D%2260%22%20as%3D%22geometry%22%2F%3E%3C%2FmxCell%3E%3C%2Froot%3E%3C%2FmxGraphModel%3Ewdf&lt;/span&gt;&lt;/div&gt;" style="rounded=0;whiteSpace=wrap;html=1;" parent="1" vertex="1">
          <mxGeometry x="630" y="480" width="190" height="140" as="geometry" />
        </mxCell>
        <mxCell id="HthpFhxTG9hvTSC9DSsg-9" value="CRUD/CHARACTERS&lt;div style=&quot;text-align: left;&quot;&gt;GET/characters/:id&lt;/div&gt;&lt;div style=&quot;text-align: left;&quot;&gt;&lt;div&gt;GET/characters/filters/name?=litho&lt;/div&gt;&lt;/div&gt;&lt;div style=&quot;text-align: left;&quot;&gt;GET/characters/list/:amount&lt;/div&gt;&lt;div style=&quot;text-align: left;&quot;&gt;POST/&lt;span style=&quot;background-color: transparent; color: light-dark(rgb(0, 0, 0), rgb(255, 255, 255));&quot;&gt;characters&lt;/span&gt;&lt;/div&gt;&lt;div style=&quot;text-align: left;&quot;&gt;&lt;span style=&quot;background-color: transparent; color: light-dark(rgb(0, 0, 0), rgb(255, 255, 255));&quot;&gt;PUT/&lt;/span&gt;characters&lt;span style=&quot;background-color: transparent; color: light-dark(rgb(0, 0, 0), rgb(255, 255, 255));&quot;&gt;/:id&lt;/span&gt;&lt;/div&gt;&lt;div style=&quot;text-align: left;&quot;&gt;DELETE/characters/:id&lt;/div&gt;&lt;div style=&quot;text-align: left;&quot;&gt;&lt;div&gt;&lt;br&gt;&lt;/div&gt;&lt;/div&gt;&lt;div style=&quot;text-align: left;&quot;&gt;&lt;span style=&quot;color: rgba(0, 0, 0, 0); font-family: monospace; font-size: 0px; text-wrap-mode: nowrap; background-color: transparent;&quot;&gt;dwd%3CmxGraphModel%3E%3Croot%3E%3CmxCell%20id%3D%220%22%2F%3E%3CmxCell%20id%3D%221%22%20parent%3D%220%22%2F%3E%3CmxCell%20id%3D%222%22%20value%3D%22API%20(%20swagger%20)%22%20style%3D%22rounded%3D0%3BwhiteSpace%3Dwrap%3Bhtml%3D1%3B%22%20vertex%3D%221%22%20parent%3D%221%22%3E%3CmxGeometry%20x%3D%22545%22%20y%3D%22170%22%20width%3D%22120%22%20height%3D%2260%22%20as%3D%22geometry%22%2F%3E%3C%2FmxCell%3E%3C%2Froot%3E%3C%2FmxGraphModel%3Ewdf&lt;/span&gt;&lt;/div&gt;" style="rounded=0;whiteSpace=wrap;html=1;" parent="1" vertex="1">
          <mxGeometry x="630" y="630" width="190" height="140" as="geometry" />
        </mxCell>
        <mxCell id="HthpFhxTG9hvTSC9DSsg-11" value="POSTGRE&lt;div&gt;&lt;span style=&quot;background-color: transparent; color: light-dark(rgb(0, 0, 0), rgb(255, 255, 255));&quot;&gt;SQL&lt;/span&gt;&lt;/div&gt;&lt;div&gt;&lt;span style=&quot;background-color: transparent; color: light-dark(rgb(0, 0, 0), rgb(255, 255, 255));&quot;&gt;&lt;font style=&quot;font-size: 8px;&quot;&gt;(arts, animations, characters, users)&lt;/font&gt;&lt;/span&gt;&lt;/div&gt;" style="shape=cylinder3;whiteSpace=wrap;html=1;boundedLbl=1;backgroundOutline=1;size=15;" parent="1" vertex="1">
          <mxGeometry x="270" y="250" width="120" height="130" as="geometry" />
        </mxCell>
        <mxCell id="HthpFhxTG9hvTSC9DSsg-12" value="google drive" style="whiteSpace=wrap;html=1;aspect=fixed;" parent="1" vertex="1">
          <mxGeometry x="760" y="-220" width="150" height="150" as="geometry" />
        </mxCell>
        <mxCell id="HthpFhxTG9hvTSC9DSsg-13" value="img bb" style="whiteSpace=wrap;html=1;aspect=fixed;" parent="1" vertex="1">
          <mxGeometry x="1025" y="-220" width="150" height="150" as="geometry" />
        </mxCell>
        <mxCell id="TzFwUVk6B7lNroVCUPBC-4" value="&lt;h1 class=&quot;style-scope ytd-watch-metadata&quot; style=&quot;margin: 0px; padding: 0px; border: 0px; background: rgb(255, 255, 255); word-break: break-word; font-family: Roboto, Arial, sans-serif; font-size: 2rem; line-height: 2.8rem; font-weight: 700; overflow: hidden; max-height: 5.6rem; -webkit-line-clamp: 2; display: -webkit-box; -webkit-box-orient: vertical; text-overflow: ellipsis; white-space: normal; color: rgb(15, 15, 15); font-style: normal; font-variant-ligatures: normal; font-variant-caps: normal; letter-spacing: normal; orphans: 2; text-align: start; text-indent: 0px; text-transform: none; widows: 2; word-spacing: 0px; -webkit-text-stroke-width: 0px; text-decoration-thickness: initial; text-decoration-style: initial; text-decoration-color: initial;&quot;&gt;nest.js&lt;/h1&gt;" style="text;whiteSpace=wrap;html=1;" parent="1" vertex="1">
          <mxGeometry x="600" y="250" width="110" height="60" as="geometry" />
        </mxCell>
        <mxCell id="TzFwUVk6B7lNroVCUPBC-8" value="&lt;h1 class=&quot;style-scope ytd-watch-metadata&quot; style=&quot;margin: 0px; padding: 0px; border: 0px; background: rgb(255, 255, 255); word-break: break-word; font-family: Roboto, Arial, sans-serif; font-size: 2rem; line-height: 2.8rem; font-weight: 700; overflow: hidden; max-height: 5.6rem; -webkit-line-clamp: 2; display: -webkit-box; -webkit-box-orient: vertical; text-overflow: ellipsis; white-space: normal; color: rgb(15, 15, 15); font-style: normal; font-variant-ligatures: normal; font-variant-caps: normal; letter-spacing: normal; orphans: 2; text-align: start; text-indent: 0px; text-transform: none; widows: 2; word-spacing: 0px; -webkit-text-stroke-width: 0px; text-decoration-thickness: initial; text-decoration-style: initial; text-decoration-color: initial;&quot;&gt;server&lt;/h1&gt;" style="text;whiteSpace=wrap;html=1;" parent="1" vertex="1">
          <mxGeometry x="810" y="90" width="110" height="70" as="geometry" />
        </mxCell>
        <mxCell id="TzFwUVk6B7lNroVCUPBC-9" value="&lt;h1 class=&quot;style-scope ytd-watch-metadata&quot; style=&quot;margin: 0px; padding: 0px; border: 0px; background: rgb(255, 255, 255); word-break: break-word; font-family: Roboto, Arial, sans-serif; font-size: 2rem; line-height: 2.8rem; font-weight: 700; overflow: hidden; max-height: 5.6rem; -webkit-line-clamp: 2; display: -webkit-box; -webkit-box-orient: vertical; text-overflow: ellipsis; white-space: normal; color: rgb(15, 15, 15); font-style: normal; font-variant-ligatures: normal; font-variant-caps: normal; letter-spacing: normal; orphans: 2; text-align: start; text-indent: 0px; text-transform: none; widows: 2; word-spacing: 0px; -webkit-text-stroke-width: 0px; text-decoration-thickness: initial; text-decoration-style: initial; text-decoration-color: initial;&quot;&gt;backend&lt;/h1&gt;" style="text;whiteSpace=wrap;html=1;" parent="1" vertex="1">
          <mxGeometry x="470" y="150" width="150" height="70" as="geometry" />
        </mxCell>
        <mxCell id="TzFwUVk6B7lNroVCUPBC-10" value="&lt;h1 class=&quot;style-scope ytd-watch-metadata&quot; style=&quot;margin: 0px; padding: 0px; border: 0px; background: rgb(255, 255, 255); word-break: break-word; font-family: Roboto, Arial, sans-serif; font-size: 2rem; line-height: 2.8rem; font-weight: 700; overflow: hidden; max-height: 5.6rem; -webkit-line-clamp: 2; display: -webkit-box; -webkit-box-orient: vertical; text-overflow: ellipsis; white-space: normal; color: rgb(15, 15, 15); font-style: normal; font-variant-ligatures: normal; font-variant-caps: normal; letter-spacing: normal; orphans: 2; text-align: start; text-indent: 0px; text-transform: none; widows: 2; word-spacing: 0px; -webkit-text-stroke-width: 0px; text-decoration-thickness: initial; text-decoration-style: initial; text-decoration-color: initial;&quot;&gt;frontend&lt;/h1&gt;" style="text;whiteSpace=wrap;html=1;" parent="1" vertex="1">
          <mxGeometry x="1240" y="140" width="150" height="50" as="geometry" />
        </mxCell>
        <mxCell id="TzFwUVk6B7lNroVCUPBC-11" value="" style="rounded=0;whiteSpace=wrap;html=1;" parent="1" vertex="1">
          <mxGeometry x="1110" y="210" width="430" height="610" as="geometry" />
        </mxCell>
        <mxCell id="TzFwUVk6B7lNroVCUPBC-12" value="&lt;h1 class=&quot;style-scope ytd-watch-metadata&quot; style=&quot;margin: 0px; padding: 0px; border: 0px; background: rgb(255, 255, 255); word-break: break-word; font-family: Roboto, Arial, sans-serif; font-size: 2rem; line-height: 2.8rem; font-weight: 700; overflow: hidden; max-height: 5.6rem; -webkit-line-clamp: 2; display: -webkit-box; -webkit-box-orient: vertical; text-overflow: ellipsis; white-space: normal; color: rgb(15, 15, 15); font-style: normal; font-variant-ligatures: normal; font-variant-caps: normal; letter-spacing: normal; orphans: 2; text-align: start; text-indent: 0px; text-transform: none; widows: 2; word-spacing: 0px; -webkit-text-stroke-width: 0px; text-decoration-thickness: initial; text-decoration-style: initial; text-decoration-color: initial;&quot;&gt;vue.js&lt;/h1&gt;" style="text;whiteSpace=wrap;html=1;" parent="1" vertex="1">
          <mxGeometry x="1270" y="230" width="110" height="70" as="geometry" />
        </mxCell>
        <mxCell id="TzFwUVk6B7lNroVCUPBC-13" value="" style="endArrow=classic;html=1;rounded=0;exitX=0.5;exitY=0;exitDx=0;exitDy=0;" parent="1" source="TzFwUVk6B7lNroVCUPBC-3" edge="1">
          <mxGeometry width="50" height="50" relative="1" as="geometry">
            <mxPoint x="920" y="200" as="sourcePoint" />
            <mxPoint x="880" y="-30" as="targetPoint" />
          </mxGeometry>
        </mxCell>
        <mxCell id="TzFwUVk6B7lNroVCUPBC-15" value="" style="endArrow=classic;startArrow=classic;html=1;rounded=0;" parent="1" edge="1">
          <mxGeometry width="50" height="50" relative="1" as="geometry">
            <mxPoint x="1030" y="-30" as="sourcePoint" />
            <mxPoint x="1310" y="210" as="targetPoint" />
          </mxGeometry>
        </mxCell>
        <mxCell id="TzFwUVk6B7lNroVCUPBC-18" value="&lt;h1 class=&quot;style-scope ytd-watch-metadata&quot; style=&quot;margin: 0px; padding: 0px; border: 0px; background: rgb(255, 255, 255); word-break: break-word; font-family: Roboto, Arial, sans-serif; font-size: 2rem; line-height: 2.8rem; font-weight: 700; overflow: hidden; max-height: 5.6rem; -webkit-line-clamp: 2; display: -webkit-box; -webkit-box-orient: vertical; text-overflow: ellipsis; white-space: normal; color: rgb(15, 15, 15); font-style: normal; font-variant-ligatures: normal; font-variant-caps: normal; letter-spacing: normal; orphans: 2; text-align: start; text-indent: 0px; text-transform: none; widows: 2; word-spacing: 0px; -webkit-text-stroke-width: 0px; text-decoration-thickness: initial; text-decoration-style: initial; text-decoration-color: initial;&quot;&gt;server&lt;/h1&gt;" style="text;whiteSpace=wrap;html=1;" parent="1" vertex="1">
          <mxGeometry x="780" y="-310" width="110" height="70" as="geometry" />
        </mxCell>
        <mxCell id="TzFwUVk6B7lNroVCUPBC-19" value="&lt;h1 class=&quot;style-scope ytd-watch-metadata&quot; style=&quot;margin: 0px; padding: 0px; border: 0px; background: rgb(255, 255, 255); word-break: break-word; font-family: Roboto, Arial, sans-serif; font-size: 2rem; line-height: 2.8rem; font-weight: 700; overflow: hidden; max-height: 5.6rem; -webkit-line-clamp: 2; display: -webkit-box; -webkit-box-orient: vertical; text-overflow: ellipsis; white-space: normal; color: rgb(15, 15, 15); font-style: normal; font-variant-ligatures: normal; font-variant-caps: normal; letter-spacing: normal; orphans: 2; text-align: start; text-indent: 0px; text-transform: none; widows: 2; word-spacing: 0px; -webkit-text-stroke-width: 0px; text-decoration-thickness: initial; text-decoration-style: initial; text-decoration-color: initial;&quot;&gt;server&lt;/h1&gt;" style="text;whiteSpace=wrap;html=1;" parent="1" vertex="1">
          <mxGeometry x="1050" y="-310" width="110" height="70" as="geometry" />
        </mxCell>
        <mxCell id="TzFwUVk6B7lNroVCUPBC-20" value="" style="endArrow=classic;startArrow=classic;html=1;rounded=0;exitX=0;exitY=0.5;exitDx=0;exitDy=0;entryX=1;entryY=0.5;entryDx=0;entryDy=0;" parent="1" source="TzFwUVk6B7lNroVCUPBC-11" target="TzFwUVk6B7lNroVCUPBC-3" edge="1">
          <mxGeometry width="50" height="50" relative="1" as="geometry">
            <mxPoint x="970" y="580" as="sourcePoint" />
            <mxPoint x="1020" y="530" as="targetPoint" />
          </mxGeometry>
        </mxCell>
        <mxCell id="TzFwUVk6B7lNroVCUPBC-21" value="&lt;h1 class=&quot;style-scope ytd-watch-metadata&quot; style=&quot;margin: 0px; padding: 0px; border: 0px; background: rgb(255, 255, 255); word-break: break-word; font-family: Roboto, Arial, sans-serif; line-height: 2.8rem; font-weight: 700; overflow: hidden; max-height: 5.6rem; -webkit-line-clamp: 2; display: -webkit-box; -webkit-box-orient: vertical; text-overflow: ellipsis; white-space: normal; color: rgb(15, 15, 15); font-style: normal; font-variant-ligatures: normal; font-variant-caps: normal; letter-spacing: normal; orphans: 2; text-align: start; text-indent: 0px; text-transform: none; widows: 2; word-spacing: 0px; -webkit-text-stroke-width: 0px; text-decoration-thickness: initial; text-decoration-style: initial; text-decoration-color: initial;&quot;&gt;&lt;font style=&quot;font-size: 21px;&quot;&gt;HTTP/REST&lt;/font&gt;&lt;/h1&gt;" style="text;whiteSpace=wrap;html=1;strokeWidth=1;" parent="1" vertex="1">
          <mxGeometry x="930" y="460" width="120" height="70" as="geometry" />
        </mxCell>
        <mxCell id="TzFwUVk6B7lNroVCUPBC-22" value="" style="endArrow=classic;startArrow=classic;html=1;rounded=0;exitX=0;exitY=0.5;exitDx=0;exitDy=0;entryX=0.998;entryY=0.79;entryDx=0;entryDy=0;entryPerimeter=0;" parent="1" target="TzFwUVk6B7lNroVCUPBC-3" edge="1">
          <mxGeometry width="50" height="50" relative="1" as="geometry">
            <mxPoint x="1110" y="695" as="sourcePoint" />
            <mxPoint x="870" y="695" as="targetPoint" />
          </mxGeometry>
        </mxCell>
        <mxCell id="TzFwUVk6B7lNroVCUPBC-23" value="&lt;h1 class=&quot;style-scope ytd-watch-metadata&quot; style=&quot;margin: 0px; padding: 0px; border: 0px; background: rgb(255, 255, 255); word-break: break-word; font-family: Roboto, Arial, sans-serif; line-height: 2.8rem; font-weight: 700; overflow: hidden; max-height: 5.6rem; -webkit-line-clamp: 2; display: -webkit-box; -webkit-box-orient: vertical; text-overflow: ellipsis; white-space: normal; color: rgb(15, 15, 15); font-style: normal; font-variant-ligatures: normal; font-variant-caps: normal; letter-spacing: normal; orphans: 2; text-align: start; text-indent: 0px; text-transform: none; widows: 2; word-spacing: 0px; -webkit-text-stroke-width: 0px; text-decoration-thickness: initial; text-decoration-style: initial; text-decoration-color: initial;&quot;&gt;&lt;font style=&quot;font-size: 21px;&quot;&gt;WEBSOCKETS&lt;/font&gt;&lt;/h1&gt;" style="text;whiteSpace=wrap;html=1;strokeWidth=1;" parent="1" vertex="1">
          <mxGeometry x="915" y="630" width="160" height="70" as="geometry" />
        </mxCell>
        <mxCell id="TzFwUVk6B7lNroVCUPBC-29" value="MongoDB&lt;div&gt;&lt;span style=&quot;font-size: 8px;&quot;&gt;( chats, messages )&lt;/span&gt;&lt;/div&gt;" style="shape=cylinder3;whiteSpace=wrap;html=1;boundedLbl=1;backgroundOutline=1;size=15;" parent="1" vertex="1">
          <mxGeometry x="270" y="425" width="120" height="130" as="geometry" />
        </mxCell>
        <mxCell id="TzFwUVk6B7lNroVCUPBC-30" value="&lt;br&gt;&lt;font color=&quot;#121212&quot;&gt;&lt;span style=&quot;background-color: light-dark(#ffffff, var(--ge-dark-color, #121212));&quot;&gt;Reddis&lt;/span&gt;&lt;/font&gt;&lt;div&gt;&lt;br&gt;&lt;/div&gt;" style="whiteSpace=wrap;html=1;aspect=fixed;" parent="1" vertex="1">
          <mxGeometry x="270" y="625" width="125" height="125" as="geometry" />
        </mxCell>
      </root>
    </mxGraphModel>
  </diagram>
</mxfile>
